<?xml version="1.0" encoding="UTF-8" standalone="no"?>
<svg
   version="1.1"
   width="512px"
   height="512px"
   viewBox="0 0 512 512"
   preserveAspectRatio="xMidYMid meet"
   id="svg_document"
   style="zoom: 1;"
   sodipodi:docname="photopasta2-dark.svg"
   inkscape:version="1.3 (0e150ed, 2023-07-21)"
   inkscape:export-filename="icon-16.png"
   inkscape:export-xdpi="3"
   inkscape:export-ydpi="3"
   xmlns:inkscape="http://www.inkscape.org/namespaces/inkscape"
   xmlns:sodipodi="http://sodipodi.sourceforge.net/DTD/sodipodi-0.dtd"
   xmlns="http://www.w3.org/2000/svg"
   xmlns:svg="http://www.w3.org/2000/svg"
   xmlns:rdf="http://www.w3.org/1999/02/22-rdf-syntax-ns#"
   xmlns:cc="http://creativecommons.org/ns#"
   xmlns:dc="http://purl.org/dc/elements/1.1/">
  <sodipodi:namedview
     id="namedview1"
     pagecolor="#ffffff"
     bordercolor="#666666"
     borderopacity="1.0"
     inkscape:showpageshadow="2"
     inkscape:pageopacity="0.0"
     inkscape:pagecheckerboard="0"
     inkscape:deskcolor="#d1d1d1"
     inkscape:zoom="1.5820312"
     inkscape:cx="250.62717"
     inkscape:cy="141.90618"
     inkscape:window-width="1280"
     inkscape:window-height="800"
     inkscape:window-x="0"
     inkscape:window-y="0"
     inkscape:window-maximized="0"
     inkscape:current-layer="Icons" />
  <!-- Created with macSVG - https://macsvg.org/ - https://github.com/dsward2/macsvg/ -->
  <title
     id="svg_document_title">Untitled.svg</title>
  <defs
     id="svg_document_defs" />
  <g
     id="main_group" />
  <svg
     version="1.1"
     id="Icons"
     viewBox="0 0 32 32"
     xml:space="preserve"><style
       type="text/css"
       id="style1">&#10;	.st0{fill:none;stroke:#000000;stroke-width:2;stroke-linecap:round;stroke-linejoin:round;stroke-miterlimit:10;}&#10;	.st1{fill:none;stroke:#000000;stroke-width:2;stroke-linejoin:round;stroke-miterlimit:10;}&#10;</style><path
       class="st0"
       d="M 23,12.279012 21.6,9.3790124 c -0.3,-0.7 -1,-1.1 -1.8,-1.1 h -7.5 c -0.8,0 -1.5,0.4 -1.8,1.1 L 8.9999999,12.279012 h -4 c -1.1,0 -2,0.9 -2,2 v 14 c 0,1.1 0.9,2 2,2 H 27 c 1.1,0 2,-0.9 2,-2 v -14 c 0,-1.1 -0.9,-2 -2,-2 z"
       id="path1"
       style="fill:#ffffff;stroke:#f2f2f2;stroke-opacity:1" /><circle
       class="st0"
       cx="16.079014"
       cy="20.990122"
       r="6"
       id="circle1"
       style="fill:#ffffff;stroke:#f3f3f3;stroke-opacity:1" /><line
       class="st0"
       x1="6.0395064"
       y1="15.476543"
       x2="8.039506"
       y2="15.476543"
       id="line1"
       style="fill:#ffffff;stroke:#f2f2f2;stroke-opacity:1" /><svg
       id="svg1"
       width="250px"
       height="250px"
       viewBox="-25 -2 512 512"
       version="1.1"><g
         id="Frame_26"
         data-name="Frame 26"
         transform="translate(-11 -15)"><path
           d="m 14.400206,14.256092 a 0.95044825,1.0062239 0 0 1 1.343935,-0.02616 l 0.515142,0.526256 a 3.8017929,4.0248957 0 0 1 0.140667,5.64391 l -0.07223,0.0815 a 1.9008965,2.0124478 0 0 0 0,2.745985 l 0.17013,0.193195 a 3.8017929,4.0248957 0 0 1 0,5.491971 l -0.17013,0.193194 a 1.9008965,2.0124478 0 0 0 0,2.745985 l 0.17013,0.193195 a 3.8017929,4.0248957 0 0 1 0,5.49197 l -1.986437,2.252935 a 0.95052773,1.006308 0 0 1 -1.389555,-1.373495 l 1.986437,-2.252935 a 1.9008965,2.0124478 0 0 0 0,-2.745985 l -0.17013,-0.193196 a 3.8017929,4.0248957 0 0 1 0,-5.492976 l 0.17013,-0.193194 a 1.9008965,2.0124478 0 0 0 0,-2.745986 l -0.17013,-0.193195 0.694777,-0.686245 -0.694777,0.686245 a 3.8017929,4.0248957 0 0 1 0,-5.492976 l 0.07224,-0.0815 a 1.9008965,2.0124478 0 0 0 -0.07034,-2.817428 l -0.515149,-0.526255 a 0.95044825,1.0062239 0 0 1 -0.02471,-1.424814"
           id="Path_162"
           fill-rule="evenodd"
           data-name="Path 162"
           fill="#2d2d2d"
           style="stroke-width:0.977938;fill:#ffcc00;stroke:none;stroke-opacity:1" /><path
           d="m 19.238553,14.254188 a 1,1 0 0 1 1.414,-0.026 l 0.542,0.523 a 4,4 0 0 1 0.148,5.609 l -0.076,0.081 a 2,2 0 0 0 0,2.729 l 0.179,0.192 a 4,4 0 0 1 0,5.458 l -0.179,0.192 a 2,2 0 0 0 0,2.729 l 0.179,0.192 a 4,4 0 0 1 0,5.458 l -2.09,2.239 a 1.0000836,1.0000836 0 0 1 -1.462,-1.365 l 2.09,-2.239 a 2,2 0 0 0 0,-2.729 l -0.179,-0.192 a 4,4 0 0 1 0,-5.459 l 0.179,-0.192 a 2,2 0 0 0 0,-2.729 l -0.179,-0.192 0.731,-0.682 -0.731,0.682 a 4,4 0 0 1 0,-5.459 l 0.076,-0.081 a 2,2 0 0 0 -0.074,-2.8 l -0.542,-0.523 a 1,1 0 0 1 -0.026,-1.416"
           id="Path_163"
           fill-rule="evenodd"
           data-name="Path 163"
           fill="#2d2d2d"
           style="fill:#ffcc00;stroke:none;stroke-opacity:1" /><path
           d="m 24.238553,14.254188 a 1,1 0 0 1 1.414,-0.026 l 0.542,0.523 a 4,4 0 0 1 0.148,5.609 l -0.076,0.081 a 2,2 0 0 0 0,2.729 l 0.179,0.192 a 4,4 0 0 1 0,5.458 l -0.179,0.192 a 2,2 0 0 0 0,2.729 l 0.179,0.192 a 4,4 0 0 1 0,5.458 l -2.09,2.239 a 1.0000836,1.0000836 0 0 1 -1.462,-1.365 l 2.09,-2.239 a 2,2 0 0 0 0,-2.729 l -0.179,-0.192 a 4,4 0 0 1 0,-5.459 l 0.179,-0.192 a 2,2 0 0 0 0,-2.729 l -0.179,-0.192 0.731,-0.682 -0.731,0.682 a 4,4 0 0 1 0,-5.459 l 0.076,-0.081 a 2,2 0 0 0 -0.074,-2.8 l -0.542,-0.523 a 1,1 0 0 1 -0.026,-1.416"
           id="Path_164"
           fill-rule="evenodd"
           data-name="Path 164"
           fill="#2d2d2d"
           style="fill:#ffcc00;stroke:none;stroke-opacity:1" /><path
           d="m 13.427259,14.948188 a 1,1 0 0 1 1,-1 h 16.841 a 3,3 0 0 1 2.3,1.079 l 2.138999,2.560999 a 1,1 0 0 0 0.768,0.36 h 9.952001 a 1,1 0 0 1 0,2 h -9.952 a 3,3 0 0 1 -2.3,-1.079 l -2.139001,-2.560998 a 1,1 0 0 0 -0.768,-0.36 H 14.427259 a 1,1 0 0 1 -1,-1.000001"
           id="Path_165"
           fill-rule="evenodd"
           data-name="Path 165"
           fill="#2d2d2d"
           style="fill:#f9f9f9" /><path
           d="m 36.475259,20.469116 a 1,1 0 0 0 -0.768,0.36 l -2.134,2.561 a 3,3 0 0 1 -2.305,1.079 h -16.841 a 1,1 0 0 1 0,-2 h 16.841 a 1,1 0 0 0 0.768,-0.36 l 2.134,-2.561 a 3,3 0 0 1 2.305,-1.079 h 9.952 a 1,1 0 0 1 0,2"
           id="Path_166"
           fill-rule="evenodd"
           data-name="Path 166"
           fill="#2d2d2d"
           style="fill:#f9f9f9" /><path
           d="m 9.6245531,18.948188 a 1,1 0 0 1 0.9999999,-1 h 17.5 a 1,1 0 0 1 0,2 h -17.5 a 1,1 0 0 1 -0.9999999,-1"
           id="Path_167"
           fill-rule="evenodd"
           data-name="Path 167"
           fill="#2d2d2d"
           style="display:none;fill:#4d4d4d" /><path
           d="m 13.589077,19.307299 a 1,1 0 0 1 1,-1 h 17.5 a 1,1 0 0 1 0,2 h -17.5 a 1,1 0 0 1 -1,-1"
           id="Path_168"
           fill-rule="evenodd"
           data-name="Path 168"
           fill="#2d2d2d"
           style="fill:#f9f9f9" /></g><path
         d="m 2.1182981,23.578916 a 1.0826171,1 0 0 1 1.5308205,-0.026 l 0.5867784,0.523 a 4.3304681,4 0 0 1 0.1602274,5.609 l -0.082279,0.081 a 2.1652341,2 0 0 0 0,2.729 l 0.1937885,0.192 a 4.3304681,4 0 0 1 0,5.458 l -0.1937885,0.192 a 2.1652341,2 0 0 0 0,2.729 l 0.1937885,0.192 a 4.3304681,4 0 0 1 0,5.458 l -2.2626696,2.239 a 1.0827076,1.0000836 0 0 1 -1.5827862,-1.365 l 2.2626697,-2.239 a 2.1652341,2 0 0 0 0,-2.729 l -0.1937885,-0.192 a 4.3304681,4 0 0 1 0,-5.459 l 0.1937885,-0.192 a 2.1652341,2 0 0 0 0,-2.729 l -0.1937885,-0.192 0.7913931,-0.682 -0.7913931,0.682 a 4.3304681,4 0 0 1 0,-5.459 l 0.082279,-0.081 a 2.1652341,2 0 0 0 -0.080114,-2.8 l -0.5867785,-0.523 a 1.0826171,1 0 0 1 -0.028148,-1.416"
         id="Path_164-8"
         fill-rule="evenodd"
         data-name="Path 164"
         fill="#2d2d2d"
         style="fill:#ffcc00;stroke-width:1.04049;stroke:none;stroke-opacity:1" /><path
         d="m 6.7777097,23.383596 a 1.0660883,1 0 0 1 1.5074485,-0.026 l 0.5778195,0.523 a 4.2643529,4 0 0 1 0.1577815,5.609 l -0.081023,0.081 a 2.1321765,2 0 0 0 0,2.729 l 0.1908295,0.192 a 4.2643529,4 0 0 1 0,5.458 l -0.1908295,0.192 a 2.1321765,2 0 0 0 0,2.729 l 0.1908295,0.192 a 4.2643529,4 0 0 1 0,5.458 l -2.2281242,2.239 a 1.0661774,1.0000836 0 0 1 -1.5586208,-1.365 l 2.2281248,-2.239 a 2.1321765,2 0 0 0 0,-2.729 l -0.1908304,-0.192 a 4.2643529,4 0 0 1 0,-5.459 l 0.1908304,-0.192 a 2.1321765,2 0 0 0 0,-2.729 l -0.1908304,-0.192 0.779311,-0.682 -0.779311,0.682 a 4.2643529,4 0 0 1 0,-5.459 l 0.081023,-0.081 a 2.1321765,2 0 0 0 -0.078888,-2.8 l -0.5778196,-0.523 a 1.0660883,1 0 0 1 -0.027722,-1.416"
         id="Path_164-8-6"
         fill-rule="evenodd"
         data-name="Path 164"
         fill="#2d2d2d"
         style="fill:#ffcc00;stroke-width:1.03252;stroke:none;stroke-opacity:1" /><path
         d="m 11.833536,23.272346 a 1.0165076,1 0 0 1 1.437342,-0.026 l 0.550947,0.523 a 4.0660302,4 0 0 1 0.150443,5.609 l -0.07726,0.081 a 2.0330152,2 0 0 0 0,2.729 l 0.181955,0.192 a 4.0660302,4 0 0 1 0,5.458 l -0.181955,0.192 a 2.0330152,2 0 0 0 0,2.729 l 0.181955,0.192 a 4.0660302,4 0 0 1 0,5.458 l -2.124501,2.239 a 1.0165926,1.0000836 0 0 1 -1.486134,-1.365 l 2.124501,-2.239 a 2.0330152,2 0 0 0 0,-2.729 l -0.181955,-0.192 a 4.0660302,4 0 0 1 0,-5.459 l 0.181955,-0.192 a 2.0330152,2 0 0 0 0,-2.729 l -0.181955,-0.192 0.743067,-0.682 -0.743067,0.682 a 4.0660302,4 0 0 1 0,-5.459 l 0.07726,-0.081 a 2.0330152,2 0 0 0 -0.07522,-2.8 l -0.550946,-0.523 a 1.0165076,1 0 0 1 -0.02643,-1.416"
         id="Path_164-8-2"
         fill-rule="evenodd"
         data-name="Path 164"
         fill="#2d2d2d"
         style="fill:#ffcc00;stroke-width:1.00822;stroke:none;stroke-opacity:1" /></svg></svg>
  <metadata
     id="metadata1">
    <rdf:RDF>
      <cc:Work
         rdf:about="">
        <dc:title>Untitled.svg</dc:title>
      </cc:Work>
    </rdf:RDF>
  </metadata>
</svg>
